<svg width="16" height="18" viewBox="0 0 16 18" fill="none" xmlns="http://www.w3.org/2000/svg">
    <path fill-rule="evenodd" clip-rule="evenodd" d="M8.04668 0.041687H7.95334C6.42168 0.041687 5.20834 0.041687 4.25918 0.169187C3.28251 0.300854 2.49168 0.57752 1.86751 1.20085C1.24418 1.82502 0.96751 2.61585 0.835844 3.59252C0.708344 4.54252 0.708344 5.75502 0.708344 7.28669V9.88002C0.708344 11.4117 0.708344 12.625 0.835844 13.5742C0.96751 14.5509 1.24418 15.3417 1.86751 15.9659C2.25084 16.3484 2.69584 16.6 3.20834 16.7684V17.3334C3.20834 17.6784 3.48834 17.9584 3.83334 17.9584H4.66668C4.83244 17.9584 4.99141 17.8925 5.10862 17.7753C5.22583 17.6581 5.29168 17.4991 5.29168 17.3334V17.0867C6.04751 17.125 6.92918 17.125 7.95334 17.125H8.04668C9.07168 17.125 9.95251 17.125 10.7083 17.0867V17.3334C10.7083 17.6784 10.9883 17.9584 11.3333 17.9584H12.1667C12.3324 17.9584 12.4914 17.8925 12.6086 17.7753C12.7258 17.6581 12.7917 17.4991 12.7917 17.3334V16.7684C13.3042 16.6 13.75 16.3484 14.1325 15.9659C14.7558 15.3417 15.0325 14.5509 15.1642 13.5742C15.2917 12.6242 15.2917 11.4117 15.2917 9.88002V7.28752C15.2917 5.75585 15.2917 4.54252 15.1642 3.59335C15.0325 2.61669 14.7558 1.82585 14.1325 1.20169C13.5083 0.578354 12.7175 0.301687 11.7408 0.17002C10.7908 0.0425204 9.57834 0.0425204 8.04668 0.0425204M2.75168 2.08502C3.10418 1.73252 3.58751 1.52085 4.42584 1.40835C5.28251 1.29335 6.41084 1.29169 8.00001 1.29169C9.58918 1.29169 10.7183 1.29335 11.575 1.40835C12.4125 1.52085 12.8958 1.73252 13.2483 2.08502C13.6008 2.43752 13.8125 2.92085 13.925 3.75919C14.04 4.61585 14.0417 5.74419 14.0417 7.33335V7.95835H1.95834V7.33335C1.95834 5.74419 1.96001 4.61585 2.07501 3.75835C2.18751 2.92085 2.39918 2.43752 2.75168 2.08502ZM1.95834 9.20835H14.0417V9.83335C14.0417 11.4225 14.04 12.5517 13.925 13.4084C13.8125 14.2459 13.6008 14.7292 13.2483 15.0817C12.8958 15.4342 12.4125 15.6459 11.5742 15.7584C10.7175 15.8734 9.58918 15.875 8.00001 15.875C6.41084 15.875 5.28251 15.8734 4.42501 15.7584C3.58751 15.6459 3.10418 15.4342 2.75168 15.0817C2.39918 14.7292 2.18751 14.2459 2.07501 13.4075C1.96001 12.5517 1.95834 11.4225 1.95834 9.83335V9.20835Z" fill="#101828" />
</svg>